# 3ds Max Wavefront OBJ Exporter v0.97b - (c)2007 guruware
# File Created: 01.07.2018 19:07:53

#
# object Part3
#

v  0.4646 0.0355 3.1217
v  0.4741 0.0527 -3.0531
v  0.8561 0.1670 -2.8285
v  0.8473 0.1510 2.8990
v  1.1364 0.3136 -2.4851
v  1.1287 0.2995 2.5572
v  0.0267 -0.0321 3.1985
v  0.0365 -0.0144 -3.1316
v  1.2824 0.4506 -2.0642
v  1.2760 0.4389 2.1375
v  -0.7977 0.0887 -2.8313
v  -0.4058 0.0111 -3.0545
v  -0.4153 -0.0062 3.1202
v  -0.8065 0.0727 2.8962
v  -1.0917 0.2081 -2.4888
v  -1.0995 0.1940 2.5535
v  -1.2514 0.3307 -2.0684
v  -1.2579 0.3189 2.1333
v  0.8065 1.2159 -2.8257
v  0.4153 1.2947 -3.0497
v  1.0995 1.0945 -2.4829
v  1.2578 0.9696 -2.0627
v  0.7977 1.1999 2.9018
v  1.0917 1.0804 2.5593
v  -1.1287 0.9890 -2.4867
v  -1.2760 0.8497 -2.0670
v  -1.1365 0.9749 2.5556
v  -0.8561 1.1216 2.8991
v  -0.4741 1.2358 3.1236
v  -0.0365 1.3030 3.2021
v  0.4058 1.2775 3.1251
v  -0.0267 1.3207 -3.1280
v  1.2514 0.9579 2.1389
v  -0.4646 1.2531 -3.0512
v  -0.8473 1.1376 -2.8284
v  -1.2824 0.8379 2.1347
# 36 vertices

vn 0.2038 -0.9790 -0.0025
vn 0.3358 -0.9419 -0.0021
vn 0.3358 -0.9419 -0.0022
vn 0.5024 -0.8646 -0.0016
vn 0.0473 -0.9988 -0.0027
vn 0.6858 -0.7277 -0.0010
vn -0.2453 -0.9695 -0.0031
vn -0.1104 -0.9939 -0.0030
vn -0.4184 -0.9082 -0.0032
vn -0.4184 -0.9083 -0.0032
vn -0.6141 -0.7893 -0.0032
vn 0.6208 0.0316 -0.7833
vn 0.3257 0.0180 -0.9452
vn 0.8493 0.0416 -0.5263
vn 0.9814 0.0470 -0.1865
vn 0.6184 0.0271 0.7854
vn 0.8477 0.0387 0.5291
vn -0.8477 -0.0387 -0.5291
vn -0.9808 -0.0459 -0.1897
vn -0.8493 -0.0416 0.5263
vn -0.6208 -0.0316 0.7833
vn -0.3257 -0.0180 0.9452
vn -0.0016 -0.0028 1.0000
vn 0.2453 0.9695 0.0031
vn 0.1104 0.9939 0.0030
vn 0.4184 0.9082 0.0032
vn -0.0473 0.9988 0.0027
vn 0.6141 0.7893 0.0032
vn -0.2038 0.9790 0.0025
vn -0.3358 0.9419 0.0021
vn -0.5024 0.8646 0.0016
vn -0.6858 0.7277 0.0010
vn 0.0016 0.0028 -1.0000
vn 0.9808 0.0459 0.1897
vn 0.3228 0.0127 0.9464
vn -0.3228 -0.0127 -0.9464
vn -0.6184 -0.0271 -0.7854
vn -0.9814 -0.0470 0.1865
# 38 vertex normals

vt 0.5468 0.1443 0.0000
vt 0.6807 0.1443 0.0000
vt 0.6758 0.1527 0.0000
vt 0.5517 0.1527 0.0000
vt 0.6684 0.1590 0.0000
vt 0.5591 0.1590 0.0000
vt 0.5452 0.1348 0.0000
vt 0.6823 0.1348 0.0000
vt 0.6593 0.1623 0.0000
vt 0.5682 0.1623 0.0000
vt 0.6758 0.1169 0.0000
vt 0.6807 0.1253 0.0000
vt 0.5468 0.1253 0.0000
vt 0.5517 0.1169 0.0000
vt 0.6684 0.1106 0.0000
vt 0.5591 0.1106 0.0000
vt 0.6593 0.1073 0.0000
vt 0.5682 0.1073 0.0000
vt 0.6926 0.0976 0.0000
vt 0.7147 0.0976 0.0000
vt 0.7167 0.1070 0.0000
vt 0.6906 0.1070 0.0000
vt 0.6954 0.0882 0.0000
vt 0.7118 0.0882 0.0000
vt 0.6982 0.0788 0.0000
vt 0.7091 0.0788 0.0000
vt 0.6926 0.2986 0.0000
vt 0.7147 0.2986 0.0000
vt 0.7118 0.3080 0.0000
vt 0.6954 0.3080 0.0000
vt 0.6954 0.1445 0.0000
vt 0.7118 0.1445 0.0000
vt 0.7091 0.1539 0.0000
vt 0.6982 0.1539 0.0000
vt 0.6954 0.2516 0.0000
vt 0.7118 0.2516 0.0000
vt 0.7147 0.2610 0.0000
vt 0.6926 0.2610 0.0000
vt 0.6906 0.2704 0.0000
vt 0.7167 0.2704 0.0000
vt 0.7177 0.2798 0.0000
vt 0.6896 0.2798 0.0000
vt 0.1709 0.1131 0.0000
vt 0.1758 0.1215 0.0000
vt 0.0420 0.1215 0.0000
vt 0.0468 0.1131 0.0000
vt 0.1635 0.1069 0.0000
vt 0.0543 0.1069 0.0000
vt 0.1775 0.1310 0.0000
vt 0.0403 0.1310 0.0000
vt 0.1544 0.1036 0.0000
vt 0.0634 0.1036 0.0000
vt 0.0420 0.1406 0.0000
vt 0.1758 0.1406 0.0000
vt 0.1709 0.1490 0.0000
vt 0.0468 0.1490 0.0000
vt 0.1635 0.1552 0.0000
vt 0.0543 0.1552 0.0000
vt 0.1544 0.1585 0.0000
vt 0.0634 0.1585 0.0000
vt 0.7177 0.1164 0.0000
vt 0.6896 0.1164 0.0000
vt 0.6982 0.3173 0.0000
vt 0.7091 0.3173 0.0000
vt 0.7091 0.4056 0.0000
vt 0.6982 0.4056 0.0000
vt 0.6906 0.2892 0.0000
vt 0.7167 0.2892 0.0000
vt 0.7167 0.1258 0.0000
vt 0.6906 0.1258 0.0000
vt 0.7147 0.1352 0.0000
vt 0.6926 0.1352 0.0000
vt 0.7091 0.2422 0.0000
vt 0.6982 0.2422 0.0000
# 74 texture coords

g Part3
s 1
f 1/1/1 2/2/1 3/3/2 4/4/3 
f 4/4/3 3/3/2 5/5/4 6/6/4 
f 7/7/5 8/8/5 2/2/1 1/1/1 
f 6/6/4 5/5/4 9/9/6 10/10/6 
f 11/11/7 12/12/8 13/13/8 14/14/7 
f 15/15/9 11/11/7 14/14/7 16/16/10 
f 12/12/8 8/8/5 7/7/5 13/13/8 
f 17/17/11 15/15/9 16/16/10 18/18/11 
s 8
f 19/19/12 3/20/12 2/21/13 20/22/13 
f 21/23/14 5/24/14 3/20/12 19/19/12 
f 22/25/15 9/26/15 5/24/14 21/23/14 
f 23/27/16 4/28/16 6/29/17 24/30/17 
f 25/31/18 15/32/18 17/33/19 26/34/19 
f 27/35/20 16/36/20 14/37/21 28/38/21 
f 29/39/22 13/40/22 7/41/23 30/42/23 
s 1
f 19/43/24 20/44/25 31/45/25 23/46/24 
f 21/47/26 19/43/24 23/46/24 24/48/26 
f 20/44/25 32/49/27 30/50/27 31/45/25 
f 22/51/28 21/47/26 24/48/26 33/52/28 
f 29/53/29 34/54/29 35/55/30 28/56/30 
f 28/56/30 35/55/30 25/57/31 27/58/31 
f 30/50/27 32/49/27 34/54/29 29/53/29 
f 27/58/31 25/57/31 26/59/32 36/60/32 
s 8
f 20/22/13 2/21/13 8/61/33 32/62/33 
f 33/63/34 10/64/34 9/65/15 22/66/15 
f 24/30/17 6/29/17 10/64/34 33/63/34 
f 31/67/35 1/68/35 4/28/16 23/27/16 
f 30/42/23 7/41/23 1/68/35 31/67/35 
f 32/62/33 8/61/33 12/69/36 34/70/36 
f 34/70/36 12/69/36 11/71/37 35/72/37 
f 35/72/37 11/71/37 15/32/18 25/31/18 
f 26/34/19 17/33/19 18/73/38 36/74/38 
f 36/74/38 18/73/38 16/36/20 27/35/20 
f 28/38/21 14/37/21 13/40/22 29/39/22 
# 34 polygons

